<mxfile host="app.diagrams.net" modified="2024-03-20T15:20:09.373Z" agent="Mozilla/5.0 (Windows NT 10.0; Win64; x64) AppleWebKit/537.36 (KHTML, like Gecko) Chrome/120.0.0.0 YaBrowser/24.1.0.0 Safari/537.36" etag="jceYRLcMsX3XKeqR_tsE" version="24.0.7" type="github" pages="2">
  <diagram name="CLASS Diagram UML" id="c4acf3e9-155e-7222-9cf6-157b1a14988f">
    <mxGraphModel dx="2623" dy="1146" grid="1" gridSize="10" guides="1" tooltips="1" connect="1" arrows="1" fold="1" page="1" pageScale="1" pageWidth="850" pageHeight="1100" background="none" math="0" shadow="0">
      <root>
        <mxCell id="0" />
        <mxCell id="1" parent="0" />
        <mxCell id="1tvXORQ-i409-d9z1Q-o-1" value="Customer" style="swimlane;fontStyle=1;align=center;verticalAlign=top;childLayout=stackLayout;horizontal=1;startSize=26;horizontalStack=0;resizeParent=1;resizeParentMax=0;resizeLast=0;collapsible=1;marginBottom=0;whiteSpace=wrap;html=1;" vertex="1" parent="1">
          <mxGeometry x="85" y="265" width="110" height="70" as="geometry" />
        </mxCell>
        <mxCell id="1tvXORQ-i409-d9z1Q-o-2" value="Name: String&lt;div&gt;Address: String&lt;/div&gt;" style="text;strokeColor=none;fillColor=none;align=left;verticalAlign=top;spacingLeft=4;spacingRight=4;overflow=hidden;rotatable=0;points=[[0,0.5],[1,0.5]];portConstraint=eastwest;whiteSpace=wrap;html=1;" vertex="1" parent="1tvXORQ-i409-d9z1Q-o-1">
          <mxGeometry y="26" width="110" height="44" as="geometry" />
        </mxCell>
        <mxCell id="1tvXORQ-i409-d9z1Q-o-5" value="Order" style="swimlane;fontStyle=1;align=center;verticalAlign=top;childLayout=stackLayout;horizontal=1;startSize=26;horizontalStack=0;resizeParent=1;resizeParentMax=0;resizeLast=0;collapsible=1;marginBottom=0;whiteSpace=wrap;html=1;" vertex="1" parent="1">
          <mxGeometry x="245" y="218" width="120" height="150" as="geometry" />
        </mxCell>
        <mxCell id="1tvXORQ-i409-d9z1Q-o-6" value="&lt;div&gt;Date: Date&lt;/div&gt;&lt;div&gt;status: string&lt;/div&gt;" style="text;strokeColor=none;fillColor=none;align=left;verticalAlign=top;spacingLeft=4;spacingRight=4;overflow=hidden;rotatable=0;points=[[0,0.5],[1,0.5]];portConstraint=eastwest;whiteSpace=wrap;html=1;" vertex="1" parent="1tvXORQ-i409-d9z1Q-o-5">
          <mxGeometry y="26" width="120" height="44" as="geometry" />
        </mxCell>
        <mxCell id="1tvXORQ-i409-d9z1Q-o-7" value="" style="line;strokeWidth=1;fillColor=none;align=left;verticalAlign=middle;spacingTop=-1;spacingLeft=3;spacingRight=3;rotatable=0;labelPosition=right;points=[];portConstraint=eastwest;strokeColor=inherit;" vertex="1" parent="1tvXORQ-i409-d9z1Q-o-5">
          <mxGeometry y="70" width="120" height="8" as="geometry" />
        </mxCell>
        <mxCell id="1tvXORQ-i409-d9z1Q-o-8" value="+calcSub Total()&lt;div&gt;+calc Tax()&lt;/div&gt;&lt;div&gt;+calc Total()&lt;/div&gt;&lt;div&gt;+calc TotalWeight()&lt;/div&gt;" style="text;strokeColor=none;fillColor=none;align=left;verticalAlign=top;spacingLeft=4;spacingRight=4;overflow=hidden;rotatable=0;points=[[0,0.5],[1,0.5]];portConstraint=eastwest;whiteSpace=wrap;html=1;" vertex="1" parent="1tvXORQ-i409-d9z1Q-o-5">
          <mxGeometry y="78" width="120" height="72" as="geometry" />
        </mxCell>
        <mxCell id="1tvXORQ-i409-d9z1Q-o-9" value="&lt;font style=&quot;font-size: 48px;&quot;&gt;Systems order&lt;/font&gt;" style="text;html=1;align=center;verticalAlign=middle;whiteSpace=wrap;rounded=0;" vertex="1" parent="1">
          <mxGeometry x="200" y="50" width="410" height="70" as="geometry" />
        </mxCell>
        <mxCell id="1tvXORQ-i409-d9z1Q-o-32" value="OrderDetail" style="swimlane;fontStyle=1;align=center;verticalAlign=top;childLayout=stackLayout;horizontal=1;startSize=26;horizontalStack=0;resizeParent=1;resizeParentMax=0;resizeLast=0;collapsible=1;marginBottom=0;whiteSpace=wrap;html=1;" vertex="1" parent="1">
          <mxGeometry x="445" y="211" width="120" height="150" as="geometry" />
        </mxCell>
        <mxCell id="1tvXORQ-i409-d9z1Q-o-33" value="&lt;div&gt;quantity: int&lt;/div&gt;&lt;div&gt;taxStatus: String&lt;/div&gt;" style="text;strokeColor=none;fillColor=none;align=left;verticalAlign=top;spacingLeft=4;spacingRight=4;overflow=hidden;rotatable=0;points=[[0,0.5],[1,0.5]];portConstraint=eastwest;whiteSpace=wrap;html=1;" vertex="1" parent="1tvXORQ-i409-d9z1Q-o-32">
          <mxGeometry y="26" width="120" height="44" as="geometry" />
        </mxCell>
        <mxCell id="1tvXORQ-i409-d9z1Q-o-34" value="" style="line;strokeWidth=1;fillColor=none;align=left;verticalAlign=middle;spacingTop=-1;spacingLeft=3;spacingRight=3;rotatable=0;labelPosition=right;points=[];portConstraint=eastwest;strokeColor=inherit;" vertex="1" parent="1tvXORQ-i409-d9z1Q-o-32">
          <mxGeometry y="70" width="120" height="8" as="geometry" />
        </mxCell>
        <mxCell id="1tvXORQ-i409-d9z1Q-o-35" value="+calcSub Total()&lt;div&gt;+calc Tax()&lt;/div&gt;&lt;div&gt;+calc Weight()&lt;/div&gt;" style="text;strokeColor=none;fillColor=none;align=left;verticalAlign=top;spacingLeft=4;spacingRight=4;overflow=hidden;rotatable=0;points=[[0,0.5],[1,0.5]];portConstraint=eastwest;whiteSpace=wrap;html=1;" vertex="1" parent="1tvXORQ-i409-d9z1Q-o-32">
          <mxGeometry y="78" width="120" height="72" as="geometry" />
        </mxCell>
        <mxCell id="1tvXORQ-i409-d9z1Q-o-38" value="" style="endArrow=open;html=1;endSize=12;startArrow=diamondThin;startSize=14;startFill=0;edgeStyle=orthogonalEdgeStyle;rounded=0;exitX=1.005;exitY=0.042;exitDx=0;exitDy=0;exitPerimeter=0;entryX=-0.012;entryY=0.149;entryDx=0;entryDy=0;entryPerimeter=0;" edge="1" parent="1" source="1tvXORQ-i409-d9z1Q-o-8" target="1tvXORQ-i409-d9z1Q-o-35">
          <mxGeometry relative="1" as="geometry">
            <mxPoint x="305" y="725" as="sourcePoint" />
            <mxPoint x="465" y="725" as="targetPoint" />
          </mxGeometry>
        </mxCell>
        <mxCell id="1tvXORQ-i409-d9z1Q-o-39" value="1" style="edgeLabel;resizable=0;html=1;align=left;verticalAlign=top;" connectable="0" vertex="1" parent="1tvXORQ-i409-d9z1Q-o-38">
          <mxGeometry x="-1" relative="1" as="geometry" />
        </mxCell>
        <mxCell id="1tvXORQ-i409-d9z1Q-o-40" value="1...*" style="edgeLabel;resizable=0;html=1;align=right;verticalAlign=top;" connectable="0" vertex="1" parent="1tvXORQ-i409-d9z1Q-o-38">
          <mxGeometry x="1" relative="1" as="geometry" />
        </mxCell>
        <mxCell id="fzY6wtfGm5PcoIsKAaRW-6" value="line item" style="edgeLabel;html=1;align=center;verticalAlign=middle;resizable=0;points=[];" vertex="1" connectable="0" parent="1tvXORQ-i409-d9z1Q-o-38">
          <mxGeometry x="0.0025" relative="1" as="geometry">
            <mxPoint y="-15" as="offset" />
          </mxGeometry>
        </mxCell>
        <mxCell id="1tvXORQ-i409-d9z1Q-o-41" value="" style="endArrow=none;html=1;edgeStyle=orthogonalEdgeStyle;rounded=0;exitX=1.005;exitY=0.342;exitDx=0;exitDy=0;exitPerimeter=0;entryX=-0.008;entryY=0.141;entryDx=0;entryDy=0;entryPerimeter=0;" edge="1" parent="1" source="1tvXORQ-i409-d9z1Q-o-2" target="1tvXORQ-i409-d9z1Q-o-8">
          <mxGeometry relative="1" as="geometry">
            <mxPoint x="225" y="665" as="sourcePoint" />
            <mxPoint x="385" y="665" as="targetPoint" />
          </mxGeometry>
        </mxCell>
        <mxCell id="1tvXORQ-i409-d9z1Q-o-42" value="1" style="edgeLabel;resizable=0;html=1;align=left;verticalAlign=bottom;" connectable="0" vertex="1" parent="1tvXORQ-i409-d9z1Q-o-41">
          <mxGeometry x="-1" relative="1" as="geometry" />
        </mxCell>
        <mxCell id="1tvXORQ-i409-d9z1Q-o-43" value="0...*" style="edgeLabel;resizable=0;html=1;align=right;verticalAlign=bottom;" connectable="0" vertex="1" parent="1tvXORQ-i409-d9z1Q-o-41">
          <mxGeometry x="1" relative="1" as="geometry" />
        </mxCell>
        <mxCell id="1tvXORQ-i409-d9z1Q-o-45" value="item" style="swimlane;fontStyle=1;align=center;verticalAlign=top;childLayout=stackLayout;horizontal=1;startSize=26;horizontalStack=0;resizeParent=1;resizeParentMax=0;resizeLast=0;collapsible=1;marginBottom=0;whiteSpace=wrap;html=1;" vertex="1" parent="1">
          <mxGeometry x="635" y="210" width="130" height="150" as="geometry" />
        </mxCell>
        <mxCell id="1tvXORQ-i409-d9z1Q-o-46" value="&lt;div&gt;shippingWeight&lt;/div&gt;&lt;div&gt;description: String&lt;/div&gt;" style="text;strokeColor=none;fillColor=none;align=left;verticalAlign=top;spacingLeft=4;spacingRight=4;overflow=hidden;rotatable=0;points=[[0,0.5],[1,0.5]];portConstraint=eastwest;whiteSpace=wrap;html=1;" vertex="1" parent="1tvXORQ-i409-d9z1Q-o-45">
          <mxGeometry y="26" width="130" height="44" as="geometry" />
        </mxCell>
        <mxCell id="1tvXORQ-i409-d9z1Q-o-47" value="" style="line;strokeWidth=1;fillColor=none;align=left;verticalAlign=middle;spacingTop=-1;spacingLeft=3;spacingRight=3;rotatable=0;labelPosition=right;points=[];portConstraint=eastwest;strokeColor=inherit;" vertex="1" parent="1tvXORQ-i409-d9z1Q-o-45">
          <mxGeometry y="70" width="130" height="8" as="geometry" />
        </mxCell>
        <mxCell id="1tvXORQ-i409-d9z1Q-o-48" value="getPriceForQuantity()&lt;div&gt;getTax()&lt;/div&gt;&lt;div&gt;inStock()&lt;/div&gt;" style="text;strokeColor=none;fillColor=none;align=left;verticalAlign=top;spacingLeft=4;spacingRight=4;overflow=hidden;rotatable=0;points=[[0,0.5],[1,0.5]];portConstraint=eastwest;whiteSpace=wrap;html=1;" vertex="1" parent="1tvXORQ-i409-d9z1Q-o-45">
          <mxGeometry y="78" width="130" height="72" as="geometry" />
        </mxCell>
        <mxCell id="fzY6wtfGm5PcoIsKAaRW-1" value="" style="endArrow=open;endFill=1;endSize=12;html=1;rounded=0;entryX=-0.003;entryY=0.148;entryDx=0;entryDy=0;entryPerimeter=0;exitX=1.015;exitY=0.133;exitDx=0;exitDy=0;exitPerimeter=0;edgeStyle=orthogonalEdgeStyle;" edge="1" parent="1" source="1tvXORQ-i409-d9z1Q-o-35" target="1tvXORQ-i409-d9z1Q-o-48">
          <mxGeometry width="160" relative="1" as="geometry">
            <mxPoint x="579.4400000000002" y="404.99599999999975" as="sourcePoint" />
            <mxPoint x="635.0000000000001" y="404.99599999999975" as="targetPoint" />
          </mxGeometry>
        </mxCell>
        <mxCell id="fzY6wtfGm5PcoIsKAaRW-2" value="0...*" style="edgeLabel;html=1;align=center;verticalAlign=middle;resizable=0;points=[];" vertex="1" connectable="0" parent="fzY6wtfGm5PcoIsKAaRW-1">
          <mxGeometry x="0.3121" y="-2" relative="1" as="geometry">
            <mxPoint x="-27" y="-12" as="offset" />
          </mxGeometry>
        </mxCell>
        <mxCell id="fzY6wtfGm5PcoIsKAaRW-3" value="1" style="edgeLabel;html=1;align=center;verticalAlign=middle;resizable=0;points=[];" vertex="1" connectable="0" parent="fzY6wtfGm5PcoIsKAaRW-1">
          <mxGeometry x="0.7886" y="2" relative="1" as="geometry">
            <mxPoint y="-11" as="offset" />
          </mxGeometry>
        </mxCell>
        <mxCell id="fzY6wtfGm5PcoIsKAaRW-4" value="Payment" style="swimlane;fontStyle=1;align=center;verticalAlign=top;childLayout=stackLayout;horizontal=1;startSize=26;horizontalStack=0;resizeParent=1;resizeParentMax=0;resizeLast=0;collapsible=1;marginBottom=0;whiteSpace=wrap;html=1;" vertex="1" parent="1">
          <mxGeometry x="250" y="436" width="110" height="50" as="geometry" />
        </mxCell>
        <mxCell id="fzY6wtfGm5PcoIsKAaRW-5" value="amount: float" style="text;strokeColor=none;fillColor=none;align=left;verticalAlign=top;spacingLeft=4;spacingRight=4;overflow=hidden;rotatable=0;points=[[0,0.5],[1,0.5]];portConstraint=eastwest;whiteSpace=wrap;html=1;" vertex="1" parent="fzY6wtfGm5PcoIsKAaRW-4">
          <mxGeometry y="26" width="110" height="24" as="geometry" />
        </mxCell>
        <mxCell id="fzY6wtfGm5PcoIsKAaRW-12" value="" style="endArrow=none;html=1;edgeStyle=orthogonalEdgeStyle;rounded=0;exitX=0.5;exitY=0;exitDx=0;exitDy=0;entryX=0.496;entryY=1.008;entryDx=0;entryDy=0;entryPerimeter=0;" edge="1" parent="1" source="fzY6wtfGm5PcoIsKAaRW-4" target="1tvXORQ-i409-d9z1Q-o-8">
          <mxGeometry relative="1" as="geometry">
            <mxPoint x="385" y="485" as="sourcePoint" />
            <mxPoint x="545" y="485" as="targetPoint" />
          </mxGeometry>
        </mxCell>
        <mxCell id="fzY6wtfGm5PcoIsKAaRW-13" value="1...*" style="edgeLabel;resizable=0;html=1;align=left;verticalAlign=bottom;" connectable="0" vertex="1" parent="fzY6wtfGm5PcoIsKAaRW-12">
          <mxGeometry x="-1" relative="1" as="geometry" />
        </mxCell>
        <mxCell id="fzY6wtfGm5PcoIsKAaRW-14" value="1" style="edgeLabel;resizable=0;html=1;align=right;verticalAlign=bottom;" connectable="0" vertex="1" parent="fzY6wtfGm5PcoIsKAaRW-12">
          <mxGeometry x="1" relative="1" as="geometry">
            <mxPoint x="-10" y="27" as="offset" />
          </mxGeometry>
        </mxCell>
        <mxCell id="fzY6wtfGm5PcoIsKAaRW-15" value="Check" style="swimlane;fontStyle=1;align=center;verticalAlign=top;childLayout=stackLayout;horizontal=1;startSize=26;horizontalStack=0;resizeParent=1;resizeParentMax=0;resizeLast=0;collapsible=1;marginBottom=0;whiteSpace=wrap;html=1;" vertex="1" parent="1">
          <mxGeometry x="250" y="585" width="120" height="110" as="geometry" />
        </mxCell>
        <mxCell id="fzY6wtfGm5PcoIsKAaRW-16" value="&lt;div&gt;name: String&lt;/div&gt;&lt;div&gt;bankID: String&lt;/div&gt;" style="text;strokeColor=none;fillColor=none;align=left;verticalAlign=top;spacingLeft=4;spacingRight=4;overflow=hidden;rotatable=0;points=[[0,0.5],[1,0.5]];portConstraint=eastwest;whiteSpace=wrap;html=1;" vertex="1" parent="fzY6wtfGm5PcoIsKAaRW-15">
          <mxGeometry y="26" width="120" height="44" as="geometry" />
        </mxCell>
        <mxCell id="fzY6wtfGm5PcoIsKAaRW-17" value="" style="line;strokeWidth=1;fillColor=none;align=left;verticalAlign=middle;spacingTop=-1;spacingLeft=3;spacingRight=3;rotatable=0;labelPosition=right;points=[];portConstraint=eastwest;strokeColor=inherit;" vertex="1" parent="fzY6wtfGm5PcoIsKAaRW-15">
          <mxGeometry y="70" width="120" height="8" as="geometry" />
        </mxCell>
        <mxCell id="fzY6wtfGm5PcoIsKAaRW-18" value="authorized()" style="text;strokeColor=none;fillColor=none;align=left;verticalAlign=top;spacingLeft=4;spacingRight=4;overflow=hidden;rotatable=0;points=[[0,0.5],[1,0.5]];portConstraint=eastwest;whiteSpace=wrap;html=1;" vertex="1" parent="fzY6wtfGm5PcoIsKAaRW-15">
          <mxGeometry y="78" width="120" height="32" as="geometry" />
        </mxCell>
        <mxCell id="fzY6wtfGm5PcoIsKAaRW-19" value="Credit" style="swimlane;fontStyle=1;align=center;verticalAlign=top;childLayout=stackLayout;horizontal=1;startSize=26;horizontalStack=0;resizeParent=1;resizeParentMax=0;resizeLast=0;collapsible=1;marginBottom=0;whiteSpace=wrap;html=1;" vertex="1" parent="1">
          <mxGeometry x="415" y="585" width="120" height="110" as="geometry" />
        </mxCell>
        <mxCell id="fzY6wtfGm5PcoIsKAaRW-20" value="&lt;div&gt;number: String&lt;/div&gt;&lt;div&gt;type: String&lt;/div&gt;&lt;div&gt;expDate: date&lt;/div&gt;" style="text;strokeColor=none;fillColor=none;align=left;verticalAlign=top;spacingLeft=4;spacingRight=4;overflow=hidden;rotatable=0;points=[[0,0.5],[1,0.5]];portConstraint=eastwest;whiteSpace=wrap;html=1;" vertex="1" parent="fzY6wtfGm5PcoIsKAaRW-19">
          <mxGeometry y="26" width="120" height="44" as="geometry" />
        </mxCell>
        <mxCell id="fzY6wtfGm5PcoIsKAaRW-21" value="" style="line;strokeWidth=1;fillColor=none;align=left;verticalAlign=middle;spacingTop=-1;spacingLeft=3;spacingRight=3;rotatable=0;labelPosition=right;points=[];portConstraint=eastwest;strokeColor=inherit;" vertex="1" parent="fzY6wtfGm5PcoIsKAaRW-19">
          <mxGeometry y="70" width="120" height="8" as="geometry" />
        </mxCell>
        <mxCell id="fzY6wtfGm5PcoIsKAaRW-22" value="authorized()" style="text;strokeColor=none;fillColor=none;align=left;verticalAlign=top;spacingLeft=4;spacingRight=4;overflow=hidden;rotatable=0;points=[[0,0.5],[1,0.5]];portConstraint=eastwest;whiteSpace=wrap;html=1;" vertex="1" parent="fzY6wtfGm5PcoIsKAaRW-19">
          <mxGeometry y="78" width="120" height="32" as="geometry" />
        </mxCell>
        <mxCell id="fzY6wtfGm5PcoIsKAaRW-23" value="Cash" style="swimlane;fontStyle=1;align=center;verticalAlign=top;childLayout=stackLayout;horizontal=1;startSize=26;horizontalStack=0;resizeParent=1;resizeParentMax=0;resizeLast=0;collapsible=1;marginBottom=0;whiteSpace=wrap;html=1;" vertex="1" parent="1">
          <mxGeometry x="95" y="605" width="120" height="70" as="geometry" />
        </mxCell>
        <mxCell id="fzY6wtfGm5PcoIsKAaRW-24" value="&lt;div&gt;cash Tendered: float&lt;/div&gt;" style="text;strokeColor=none;fillColor=none;align=left;verticalAlign=top;spacingLeft=4;spacingRight=4;overflow=hidden;rotatable=0;points=[[0,0.5],[1,0.5]];portConstraint=eastwest;whiteSpace=wrap;html=1;" vertex="1" parent="fzY6wtfGm5PcoIsKAaRW-23">
          <mxGeometry y="26" width="120" height="44" as="geometry" />
        </mxCell>
        <mxCell id="fzY6wtfGm5PcoIsKAaRW-27" value="" style="endArrow=block;endSize=16;endFill=0;html=1;rounded=0;exitX=0.5;exitY=0;exitDx=0;exitDy=0;edgeStyle=orthogonalEdgeStyle;" edge="1" parent="1" source="fzY6wtfGm5PcoIsKAaRW-15">
          <mxGeometry width="160" relative="1" as="geometry">
            <mxPoint x="385" y="485" as="sourcePoint" />
            <mxPoint x="305" y="485" as="targetPoint" />
            <Array as="points">
              <mxPoint x="305" y="525" />
              <mxPoint x="305" y="525" />
            </Array>
          </mxGeometry>
        </mxCell>
        <mxCell id="fzY6wtfGm5PcoIsKAaRW-28" value="" style="endArrow=block;endSize=16;endFill=0;html=1;rounded=0;exitX=0.5;exitY=0;exitDx=0;exitDy=0;edgeStyle=orthogonalEdgeStyle;" edge="1" parent="1" source="fzY6wtfGm5PcoIsKAaRW-19">
          <mxGeometry width="160" relative="1" as="geometry">
            <mxPoint x="515" y="565" as="sourcePoint" />
            <mxPoint x="305" y="485" as="targetPoint" />
            <Array as="points">
              <mxPoint x="505" y="535" />
              <mxPoint x="305" y="535" />
            </Array>
          </mxGeometry>
        </mxCell>
        <mxCell id="fzY6wtfGm5PcoIsKAaRW-29" value="" style="endArrow=block;endSize=16;endFill=0;html=1;rounded=0;exitX=0.5;exitY=0;exitDx=0;exitDy=0;edgeStyle=orthogonalEdgeStyle;" edge="1" parent="1" source="fzY6wtfGm5PcoIsKAaRW-23">
          <mxGeometry width="160" relative="1" as="geometry">
            <mxPoint x="505" y="555" as="sourcePoint" />
            <mxPoint x="305" y="485" as="targetPoint" />
            <Array as="points">
              <mxPoint x="145" y="605" />
              <mxPoint x="145" y="535" />
              <mxPoint x="305" y="535" />
            </Array>
          </mxGeometry>
        </mxCell>
      </root>
    </mxGraphModel>
  </diagram>
  <diagram id="rJ0VgviQbjXF-jt6-Bxk" name="Страница — 2">
    <mxGraphModel dx="1420" dy="745" grid="1" gridSize="10" guides="1" tooltips="1" connect="1" arrows="1" fold="1" page="1" pageScale="1" pageWidth="827" pageHeight="1169" math="0" shadow="0">
      <root>
        <mxCell id="0" />
        <mxCell id="1" parent="0" />
      </root>
    </mxGraphModel>
  </diagram>
</mxfile>
